<svg width="100" height="100" viewBox="0 0 100 100" fill="none" xmlns="http://www.w3.org/2000/svg">
<mask id="mask0_92_45" style="mask-type:alpha" maskUnits="userSpaceOnUse" x="0" y="0" width="100" height="100">
<rect width="100" height="100" fill="#D9D9D9"/>
</mask>
<g mask="url(#mask0_92_45)">
<path d="M7.18746 73.2292C6.35413 73.2292 5.64163 72.9333 5.04996 72.3417C4.46107 71.7528 4.16663 71.0417 4.16663 70.2083V69.6875C4.16663 67.0486 5.50413 64.9139 8.17913 63.2833C10.8513 61.65 14.375 60.8333 18.75 60.8333C19.5138 60.8333 20.2611 60.8514 20.9916 60.8875C21.7194 60.9208 22.4305 61.0069 23.125 61.1458C22.5 62.1875 22.0486 63.3153 21.7708 64.5292C21.493 65.7458 21.3541 67.0139 21.3541 68.3333V73.2292H7.18746ZM32.6041 73.2292C31.5625 73.2292 30.7291 72.9167 30.1041 72.2917C29.4791 71.6667 29.1666 70.8681 29.1666 69.8958V68.6458C29.1666 65.1736 31.0763 62.4139 34.8958 60.3667C38.7152 58.3167 43.75 57.2917 50 57.2917C56.25 57.2917 61.2847 58.3167 65.1041 60.3667C68.9236 62.4139 70.8333 65.1736 70.8333 68.6458V69.8958C70.8333 70.8681 70.5041 71.6667 69.8458 72.2917C69.1847 72.9167 68.4027 73.2292 67.5 73.2292H32.6041ZM78.6458 73.2292V68.3333C78.6458 67.0139 78.5069 65.7458 78.2291 64.5292C77.9513 63.3153 77.5 62.1875 76.875 61.1458C77.5694 61.0069 78.2638 60.9208 78.9583 60.8875C79.6527 60.8514 80.4166 60.8333 81.25 60.8333C85.625 60.8333 89.15 61.65 91.825 63.2833C94.4972 64.9139 95.8333 67.0486 95.8333 69.6875V70.2083C95.8333 71.0417 95.5388 71.7528 94.95 72.3417C94.3583 72.9333 93.6458 73.2292 92.8125 73.2292H78.6458ZM18.75 56.875C17.0833 56.875 15.6944 56.3014 14.5833 55.1542C13.4722 54.0097 12.9166 52.6042 12.9166 50.9375C12.9166 49.3403 13.4722 47.9514 14.5833 46.7708C15.6944 45.5903 17.0833 45 18.75 45C20.4166 45 21.8236 45.5903 22.9708 46.7708C24.1152 47.9514 24.6875 49.3403 24.6875 50.9375C24.6875 52.6042 24.0972 54.0097 22.9166 55.1542C21.7361 56.3014 20.3472 56.875 18.75 56.875ZM81.25 56.875C79.5833 56.875 78.1777 56.3014 77.0333 55.1542C75.8861 54.0097 75.3125 52.6042 75.3125 50.9375C75.3125 49.3403 75.9027 47.9514 77.0833 46.7708C78.2638 45.5903 79.6527 45 81.25 45C82.9166 45 84.3055 45.5903 85.4166 46.7708C86.5277 47.9514 87.0833 49.3403 87.0833 50.9375C87.0833 52.6042 86.5277 54.0097 85.4166 55.1542C84.3055 56.3014 82.9166 56.875 81.25 56.875ZM50 54.1667C47.4305 54.1667 45.2611 53.2819 43.4916 51.5125C41.7194 49.7403 40.8333 47.5694 40.8333 45C40.8333 42.5 41.7194 40.3639 43.4916 38.5917C45.2611 36.8222 47.4305 35.9375 50 35.9375C52.5694 35.9375 54.7388 36.8222 56.5083 38.5917C58.2805 40.3639 59.1666 42.5 59.1666 45C59.1666 47.5694 58.2805 49.7403 56.5083 51.5125C54.7388 53.2819 52.5694 54.1667 50 54.1667Z" fill="#0DA82F"/>
</g>
</svg>
