<svg width="75" height="75" viewBox="0 0 75 75" fill="none" xmlns="http://www.w3.org/2000/svg">
<mask id="mask0_92_39" style="mask-type:alpha" maskUnits="userSpaceOnUse" x="0" y="0" width="75" height="75">
<rect width="75" height="75" fill="#D9D9D9"/>
</mask>
<g mask="url(#mask0_92_39)">
<path d="M47.8124 60.5469C47.4999 60.5469 47.1999 60.4948 46.9124 60.3906C46.627 60.2865 46.328 60.1042 46.0155 59.8438L40.3124 54.0625C39.9478 53.75 39.7655 53.3854 39.7655 52.9688C39.7655 52.5521 39.9478 52.1875 40.3124 51.875C40.6249 51.5104 40.9895 51.3281 41.4061 51.3281C41.8228 51.3281 42.1874 51.5104 42.4999 51.875L47.8124 57.1875L62.4999 42.5C62.8124 42.1354 63.177 41.9531 63.5936 41.9531C64.0103 41.9531 64.3749 42.1354 64.6874 42.5C65.052 42.8125 65.2342 43.1771 65.2342 43.5938C65.2342 44.0104 65.052 44.375 64.6874 44.6875L49.6093 59.8438C49.2968 60.1042 48.9978 60.2865 48.7124 60.3906C48.4249 60.4948 48.1249 60.5469 47.8124 60.5469ZM31.0936 35.5469C28.4895 35.5469 26.2759 34.6354 24.453 32.8125C22.6301 30.9896 21.7186 28.776 21.7186 26.1719C21.7186 23.6198 22.6301 21.4188 24.453 19.5688C26.2759 17.7208 28.4895 16.7969 31.0936 16.7969C33.6978 16.7969 35.9113 17.7208 37.7343 19.5688C39.5572 21.4188 40.4686 23.6198 40.4686 26.1719C40.4686 28.776 39.5572 30.9896 37.7343 32.8125C35.9113 34.6354 33.6978 35.5469 31.0936 35.5469ZM11.7186 58.2031C10.9895 58.2031 10.3905 57.9552 9.92175 57.4594C9.453 56.9656 9.21863 56.3542 9.21863 55.625V53.0469C9.21863 51.4323 9.60925 50.1437 10.3905 49.1813C11.1718 48.2167 12.1613 47.4219 13.3593 46.7969C16.0155 45.4427 18.6332 44.401 21.2124 43.6719C23.7895 42.9427 27.0832 42.5781 31.0936 42.5781C32.6561 42.5781 34.0363 42.6167 35.2343 42.6937C36.4322 42.7729 37.4999 42.9167 38.4374 43.125L30.7811 50.7812C30.2082 51.3542 29.9218 52.0708 29.9218 52.9312C29.9218 53.7896 30.2082 54.5312 30.7811 55.1562L33.828 58.2031H11.7186Z" fill="#FF7A00"/>
</g>
</svg>
