<svg width="30" height="30" viewBox="0 0 30 30" fill="none" xmlns="http://www.w3.org/2000/svg">
<path d="M15 27.5C14.2917 27.5 13.6927 27.2552 13.2031 26.7656C12.7135 26.276 12.4688 25.6771 12.4688 24.9688H17.5312C17.5312 25.6771 17.2865 26.276 16.7969 26.7656C16.3073 27.2552 15.7083 27.5 15 27.5ZM10.875 23.0312C10.6042 23.0312 10.3802 22.9427 10.2031 22.7656C10.026 22.5885 9.9375 22.3646 9.9375 22.0937C9.9375 21.8229 10.026 21.599 10.2031 21.4219C10.3802 21.2448 10.6042 21.1562 10.875 21.1562H19.125C19.3958 21.1562 19.6198 21.2448 19.7969 21.4219C19.974 21.599 20.0625 21.8229 20.0625 22.0937C20.0625 22.3646 19.974 22.5885 19.7969 22.7656C19.6198 22.9427 19.3958 23.0312 19.125 23.0312H10.875ZM10.0938 19.25C8.71875 18.3542 7.63021 17.2344 6.82813 15.8906C6.02604 14.5469 5.625 13.0312 5.625 11.3438C5.625 8.80208 6.55208 6.60417 8.40625 4.75C10.2604 2.89583 12.4583 1.96875 15 1.96875C17.5417 1.96875 19.7396 2.89583 21.5938 4.75C23.4479 6.60417 24.375 8.80208 24.375 11.3438C24.375 13.0312 23.9792 14.5469 23.1875 15.8906C22.3958 17.2344 21.3021 18.3542 19.9062 19.25H10.0938ZM10.7812 17.375H19.25C20.25 16.7083 21.0417 15.8438 21.625 14.7812C22.2083 13.7188 22.5 12.5729 22.5 11.3438C22.5 9.28125 21.7656 7.51562 20.2969 6.04688C18.8281 4.57812 17.0625 3.84375 15 3.84375C12.9375 3.84375 11.1719 4.57812 9.70312 6.04688C8.23437 7.51562 7.5 9.28125 7.5 11.3438C7.5 12.5729 7.79167 13.7188 8.375 14.7812C8.95833 15.8438 9.76042 16.7083 10.7812 17.375Z" fill="#FF7A00"/>
</svg>
