<svg width="30" height="30" viewBox="0 0 30 30" fill="none" xmlns="http://www.w3.org/2000/svg">
<path d="M11.9688 11.4062V18.5938C11.9688 18.9688 12.1302 19.25 12.4531 19.4375C12.776 19.625 13.0938 19.6146 13.4062 19.4062L19.0625 15.7812C19.3542 15.5938 19.5 15.3333 19.5 15C19.5 14.6667 19.3542 14.4062 19.0625 14.2188L13.4062 10.5938C13.0938 10.3854 12.776 10.375 12.4531 10.5625C12.1302 10.75 11.9688 11.0312 11.9688 11.4062ZM15 27.5C13.2917 27.5 11.6771 27.1719 10.1562 26.5156C8.63542 25.8594 7.30729 24.9635 6.17188 23.8281C5.03646 22.6927 4.14062 21.3646 3.48437 19.8438C2.82812 18.3229 2.5 16.7083 2.5 15C2.5 13.2917 2.82812 11.6771 3.48437 10.1562C4.14062 8.63542 5.03646 7.30729 6.17188 6.17188C7.30729 5.03646 8.63542 4.14062 10.1562 3.48437C11.6771 2.82812 13.2917 2.5 15 2.5C16.7083 2.5 18.3229 2.82812 19.8438 3.48437C21.3646 4.14062 22.6927 5.03646 23.8281 6.17188C24.9635 7.30729 25.8594 8.63542 26.5156 10.1562C27.1719 11.6771 27.5 13.2917 27.5 15C27.5 16.7083 27.1719 18.3229 26.5156 19.8438C25.8594 21.3646 24.9635 22.6927 23.8281 23.8281C22.6927 24.9635 21.3646 25.8594 19.8438 26.5156C18.3229 27.1719 16.7083 27.5 15 27.5ZM15 25.625C17.9167 25.625 20.4167 24.5833 22.5 22.5C24.5833 20.4167 25.625 17.9167 25.625 15C25.625 12.0833 24.5833 9.58333 22.5 7.5C20.4167 5.41667 17.9167 4.375 15 4.375C12.0833 4.375 9.58333 5.41667 7.5 7.5C5.41667 9.58333 4.375 12.0833 4.375 15C4.375 17.9167 5.41667 20.4167 7.5 22.5C9.58333 24.5833 12.0833 25.625 15 25.625Z" fill="url(#paint0_linear_25_375)"/>
<defs>
<linearGradient id="paint0_linear_25_375" x1="15" y1="2.5" x2="15" y2="27.5" gradientUnits="userSpaceOnUse">
<stop stop-color="#1A73E8"/>
<stop offset="1" stop-color="#002A61" stop-opacity="0.95"/>
</linearGradient>
</defs>
</svg>
