<svg width="74" height="60" viewBox="0 0 74 60" fill="none" xmlns="http://www.w3.org/2000/svg">
<path d="M3.33333 60C2.38889 60 1.59778 59.68 0.96 59.04C0.32 58.4022 0 57.6111 0 56.6667C0 55.7222 0.32 54.9311 0.96 54.2933C1.59778 53.6533 2.38889 53.3333 3.33333 53.3333H70C70.9444 53.3333 71.7356 53.6533 72.3733 54.2933C73.0133 54.9311 73.3333 55.7222 73.3333 56.6667C73.3333 57.6111 73.0133 58.4022 72.3733 59.04C71.7356 59.68 70.9444 60 70 60H3.33333ZM10 50C8.16667 50 6.59778 49.3478 5.29333 48.0433C3.98667 46.7367 3.33333 45.1667 3.33333 43.3333V6.66667C3.33333 4.83333 3.98667 3.26333 5.29333 1.95667C6.59778 0.652222 8.16667 0 10 0H63.3333C65.1667 0 66.7367 0.652222 68.0433 1.95667C69.3478 3.26333 70 4.83333 70 6.66667V43.3333C70 45.1667 69.3478 46.7367 68.0433 48.0433C66.7367 49.3478 65.1667 50 63.3333 50H10ZM10 43.3333H63.3333V6.66667H10V43.3333Z" fill="#FF7A00"/>
</svg>
