<svg width="60" height="60" viewBox="0 0 60 60" fill="none" xmlns="http://www.w3.org/2000/svg">
<mask id="mask0_94_19" style="mask-type:alpha" maskUnits="userSpaceOnUse" x="0" y="0" width="60" height="60">
<rect width="60" height="60" fill="#D9D9D9"/>
</mask>
<g mask="url(#mask0_94_19)">
<path d="M55 23.7502L53.8125 21.1877L51.25 20.0002L53.8125 18.8127L55 16.2502L56.1875 18.8127L58.75 20.0002L56.1875 21.1877L55 23.7502ZM47.5 13.1877L45.6875 9.31274L41.8125 7.50024L45.6875 5.68774L47.5 1.81274L49.3125 5.68774L53.1875 7.50024L49.3125 9.31274L47.5 13.1877ZM22.5 52.8752C21.3333 52.8752 20.3333 52.4902 19.5 51.7202C18.6667 50.9486 18.1667 50.0002 18 48.8752H27C26.8333 50.0002 26.3333 50.9486 25.5 51.7202C24.6667 52.4902 23.6667 52.8752 22.5 52.8752ZM13.75 44.4377V41.9377H31.25V44.4377H13.75ZM13.875 37.5002C11.5417 35.9586 9.6875 34.0002 8.3125 31.6252C6.9375 29.2502 6.25 26.6252 6.25 23.7502C6.25 19.2086 7.82333 15.3644 10.97 12.2177C14.115 9.07274 17.9583 7.50024 22.5 7.50024C27.0417 7.50024 30.8858 9.07274 34.0325 12.2177C37.1775 15.3644 38.75 19.2086 38.75 23.7502C38.75 26.6252 38.0625 29.2502 36.6875 31.6252C35.3125 34.0002 33.4583 35.9586 31.125 37.5002H13.875Z" fill="#185ABC"/>
</g>
</svg>
